<svg xmlns="http://www.w3.org/2000/svg" width="900" height="450"><path fill="#fdfdfd" d="M0 0h900v450H0Z"/><path fill="#75d59d" d="M617 153c.5.02.5.02 3.06.09 18.21 1.06 35.14 10.34 47.41 23.58 2.29 2.71 4.44 5.47 6.53 8.33.54.72 1.09 1.44 1.64 2.18 13.73 20.32 16.28 49.09 12.24 72.7-4.43 22.71-15.26 42.23-34.52 55.64-20.59 13.83-45.18 17.78-69.49 13.23-5.24-1.37-10.02-3.36-14.87-5.75-.98-.47-1.95-.94-2.96-1.43-18.02-9.53-30.06-26.96-36.35-46.01-7.27-25.86-5.05-54.65 7.37-78.6C544.98 182.9 556.68 169.7 571 162c.93-.51 1.87-1.01 2.83-1.53 13.97-7.02 27.82-8.08 43.17-7.47M261.188 145.75c1 .01 2 .01 3.04.02 8.06.1 15.83.76 23.77 2.23.72.12 1.43.24 2.16.37 16.62 3.46 32.93 12.75 42.84 26.63 9.81 16.64 11.1 32.19 11.5 51.06.95 43.86.95 43.86 12.21 56.69 5.53 6.33 6.84 11.9 6.66 20.28-.81 6.53-4.34 10.38-9.37 14.34-8.27 5.98-18.15 5.92-28 4.63-4.18-1.43-7.48-3.35-11-6-.99-.7-1.98-1.4-3-2.13-2-1.87-2-1.87-3.5-4.24-.49-.54-.99-1.08-1.5-1.63-3.71.53-5.89 2.74-8.56 5.19-17.17 15.4-38.17 18.83-60.41 18.03-13.07-.96-22.56-7.31-31.34-16.66-3.36-3.94-5.75-7.77-7.69-12.56-.3-.65-.59-1.3-.9-1.97-3.75-9.26-3.7-22.55-.41-32a97 97 0 0 1 2.81-5.9l1.08-2.11c3.29-6.21 7.34-11.17 12.42-16.02.71-.71 1.42-1.41 2.15-2.14 18.21-17.26 43.79-22.64 67.83-25.86.44-.06.44-.06 2.63-.35.39-.05.39-.05 2.35-.31 2.04-.34 2.04-.34 5.04-1.34 1.4-6.51.15-12.45-3.39-17.99-4.34-5.42-9.33-8.62-16.19-9.76-11.96-1.22-21.35.45-31.11 7.75-5.77 5-9.42 11.15-13.24 17.69-3.5 5.81-7.24 10.62-13.82 12.92-7.59 1.31-16.68 2.13-23.37-2.17-2.05-1.66-2.05-1.66-3.88-3.44-.59-.58-1.19-1.15-1.8-1.75-4.85-5.2-6.77-10.52-6.57-17.63 1.45-10.19 6.53-18.2 13.37-25.62.69-.77 1.38-1.54 2.1-2.34 10.24-10.87 22.65-17.74 36.9-21.66.58-.18.58-.18 3.5-1.06 8.31-2.23 16.08-3.27 24.69-3.19M494.113 172.16c14.45 14.09 19.51 32.14 20.11 51.95.07 5.86-.06 11.72-.18 17.59-.07 3.65-.11 7.3-.16 10.96-.06 4.28-.13 8.56-.2 12.85-.04 2.14-.07 4.28-.1 6.42-.57 37.33-.57 37.33-10.58 47.07-6.13 4.52-12.59 4.97-20 4-6.19-1.75-10.52-5.67-14-11-2.06-4.19-2.24-7.62-2.2-12.26 0-.72.01-1.43.01-2.16.01-1.55.02-3.09.04-4.63.02-2.45.03-4.91.04-7.36.03-6.1.08-12.19.13-18.29.04-5.15.07-10.3.09-15.44.01-2.4.04-4.8.06-7.19.18-25.95.18-25.95-8.07-34.68-5.63-5.17-9.77-6.45-17.38-6.32-6.02.73-10.75 3.17-14.84 7.64-7.89 10.72-8.06 22.18-8.01 35 0 1.16.01 2.32.01 3.51.03 6.49.2 12.95.62 19.43.47 7.8.7 15.6.78 23.41q.045 2.97.12 5.94c.04 7.3-.36 12.24-4.4 18.4-4.91 4.79-9.59 6.29-16.38 6.31-7.66-.16-11.95-1.28-17.37-6.94-8.38-10.27-7.42-24.2-7.97-36.78-.07-1.39-.13-2.77-.19-4.15-.24-5.09-.46-10.19-.69-15.28-.2-4.32-.39-8.64-.59-12.96l-.27-6.03c-.05-1.23-.11-2.47-.17-3.74-.05-1.07-.1-2.15-.15-3.26-.24-3.42-.72-6.77-1.22-10.17-.19-4.25-.19-8.49-.19-12.74 0-1.99-.02-3.98-.04-5.97-.02-13.06.91-25.07 9.96-35.24 5.32-4.86 10.74-6.55 17.89-6.37 5.56.74 10.02 2.9 13.88 6.94 1.5 2.38 1.5 2.38 2.5 4.38 3.53-1.65 6.68-3.74 9.93-5.88 20.31-12.78 50.45-13.26 69.18 3.04"/><path fill="#56baa0" d="M90 284c3.75 4.65 3.75 4.65 5.43 6.99 5.84 7.62 14.91 11.76 24.01 14.32 4.63 2.2 6.22 5.08 8.89 9.35 1.67 2.34 1.67 2.34 5.05 4.15 2.62 2.19 2.62 2.19 2.97 4.82l.09 3.25c.4 12.45 7.93 23.28 16.39 32.01 13.28 12.44 28.32 15.64 45.88 15.38 12.04-.43 20.8-4.78 29.29-13.27 6.96-1.03 15.23-.99 22 1 2.34 3.03 2.4 5.01 2.67 8.79.61 5.97 4.77 9.99 9.17 13.8 6.49 4.88 11.17 5.58 18.97 5.22 7.32-.18 11.38.58 17.19 5.19 7.98 3.16 17.98 3.28 26 0 8.6-4.6 8.6-4.6 11-7 1.99-.1 3.99-.18 5.98-.24 12.35-.37 22.03-2.68 31.02-11.76 4.51-6.19 8.01-12.6 8.62-20.31.08-.89.15-1.77.23-2.68L381 351c.52.14 1.05.29 1.59.44 16.18 3.87 32.16 2.28 46.41-6.44 6.03-4.6 10.92-9.61 15-16 2.43 2.36 4.72 4.61 6.69 7.38 6.91 7.84 18.82 15.05 29.46 15.77 2.51.02 5.02.04 7.54.04l2.6.03c12.82.03 23.46-3.77 32.77-12.91 2.14-2.32 4.16-4.7 5.94-7.31 2.49 1.2 4.68 2.45 7 4v2c1.31.71 2.65 1.37 4 2 1.92 1.22 3.84 2.45 5.75 3.69 18.23 11.42 36.67 15.54 58.06 15.62.35 0 .35 0 2.09.01 11.45.01 22.07-1.11 33.1-4.32 1.04-.27 2.08-.53 3.14-.8 13.68-3.93 27.36-11.66 37.86-21.2.81-.7 1.62-1.41 2.45-2.13 3.64-3.18 7.16-6.43 10.55-9.87.17.36.17.36 1.03 2.16 3.39 6.7 6.75 11.57 12.97 15.84.61.43 1.22.87 1.84 1.31 7.58 4.33 17.75 3.77 26.16 2.69 7.28-2.12 12.46-6.3 16.74-12.54 2.75-2.99 4.6-3.47 8.51-4.4 9.57-2.69 15.59-7.58 20.75-16.06 1.48-2.95 2.79-5.93 4-9 5.21 6.56 4.84 13.98 4 22-3.82 10.78-11.31 18.77-21.5 23.69-3.5 1.31-3.5 1.31-6.5 1.5-4.1 1.11-5.4 3.44-8 6.67-5.27 5.64-11.95 8.91-19.57 9.34-12.57.25-21.07-1.33-30.43-10.2-6-6.84-6-6.84-6-10-1.15 1-2.29 2-3.44 3-.73.64-1.47 1.28-2.23 1.94a210 210 0 0 0-4.41 4.02C672.67 366.29 653.96 374.91 635 379l-2.12.54c-7.07 1.65-13.99 1.77-21.22 1.72-2.02-.01-4.05 0-6.07.01-24.85-.05-49.25-7.85-67.65-24.96-.97-.76-1.94-1.52-2.94-2.31-2.78.96-3.85 1.8-5.62 4.19-6.97 8.25-18.69 14.75-29.47 16.07-14.27.98-27.97-1.23-39.24-10.75-.55-.5-1.1-1-1.67-1.51-.63-.52-1.27-1.04-1.92-1.57-3.16-2.6-5.66-5.11-8.08-8.43h-2c-1.03 1.3-2 2.64-2.94 4-6.47 8.53-15 13.67-25.06 17-.9.36-1.81.72-2.74 1.09-4.12 1.15-7.87 1.2-12.14 1.16-.38 0-.38 0-2.31.02-5.25-.01-9.77-.82-14.81-2.27l-.88 3c-3.81 12.44-9.16 21.86-21 28.25-6.61 3.03-12.43 3.83-19.68 3.5-5.77-.11-8.37.92-12.6 4.72-6.23 5.19-14.96 5.88-22.73 5.82-5.52-.51-9.94-2.75-14.41-5.93-3.51-1.77-5.98-1.55-9.89-1.36-9.34.21-15.72-.92-23.06-6.94-5.08-4.88-8.39-10.43-10.75-17.06v-4c-18.69-2.11-18.69-2.11-23.75.32-1.81 1.8-1.81 1.8-3.42 3.76-5.86 6.15-16.31 8.07-24.46 8.31-18.55.27-33.34-4.65-47.12-17.64-8.76-9.24-14.42-19.91-16.06-32.56-.63-3.99-1.33-5.85-4.5-8.38-.63-.44-1.26-.88-1.9-1.34-2.08-1.71-2.98-3.35-4.23-5.72-1.97-3.38-2.26-3.65-6.25-4.94-.68-.11-1.37-.23-2.08-.35-8.84-1.83-16.37-7.86-22.23-14.46-4.06-6.43-6.14-12.07-6.06-19.69 0-.59 0-.59.02-3.57.02-.91.03-1.81.04-2.74"/><path fill="#5aca9c" d="M688 225c5.94 17.83-.34 43.37-8 60-10.05 19.35-26.88 34.3-47.65 41.21-20.58 6.07-43.82 6.4-63.35-3.21-.98-.47-1.95-.94-2.96-1.43-16.77-8.87-29.05-25.02-35.15-42.82-1.03-3.68-1.89-6.92-1.89-10.75.62.08.62.08 3.74.49 5.82.64 11.6.7 17.45.7 1.1.01 2.2.01 3.34.02 6.14 0 11.57-.49 17.53-1.9 3.2-.58 3.2-.58 5.94-.31 2.73 2.47 4.39 4.99 6.27 8.16 3.45 5.67 8.44 8.07 14.73 9.84 10.85 1.11 19.69-.24 28.25-7.19 6.19-5.9 9.48-11.66 11.81-19.87 2.67-7.88 6.84-10.13 13.99-13.83 3.72-2.12 7.08-4.76 10.51-7.3 6.54-4.73 12.74-8.25 20.44-10.81 3-1 3-1 5-1"/><path fill="#d5b9fc" d="M703.203 119.3c1.04.24 2.08.47 3.15.72 2.19.5 4.38 1 6.56 1.51 3.34.78 6.68 1.54 10.02 2.3 2.13.49 4.27.98 6.39 1.47 1 .23 2 .45 3.02.68 7.57 1.79 12.1 3.53 16.34 10.33 2.25 3.56 4.5 6.99 7.09 10.31.46.61.93 1.21 1.4 1.83.91 1.17 1.83 2.33 2.77 3.48 2.39 3.15 3.08 4.73 2.79 8.71-.7 4.54-1.67 9.02-2.69 13.5-.1.42-.1.42-.58 2.55-.41 1.77-.81 3.53-1.22 5.3-.62 2.7-1.22 5.4-1.83 8.1a963 963 0 0 1-1.19 5.17c-.09.4-.09.4-.54 2.43-1.23 5.27-2.56 9.55-6.87 13.12-4.81 2.03-9.24 1.62-14.16.27-3.65-.08-3.65-.08-5.35 1.07a83 83 0 0 0-4.93 5.35c-4.16 4.82-4.16 4.82-6.37 6.5-2.9-.09-2.9-.09-5-1 .45-5.92 1.16-11.35 3-17-.56-.04-1.12-.08-1.69-.11-2.46-.22-4.88-.53-7.31-.89l-2.1-.24c-3.94-.9-5.55-2.23-7.83-5.62-1.02-1.78-1.98-3.58-2.94-5.4-2.32-4.39-4.84-8.38-7.88-12.3-.41-.53-.82-1.06-1.24-1.61a85 85 0 0 0-7.35-8.15c-.28-.27-.28-.27-1.69-1.68a80 80 0 0 0-3.3-3.07c-2.38-2.34-3.59-3.93-3.88-7.31.22-2.93.66-5.73 1.21-8.62.2-1.06.39-2.13.6-3.22.68-3.38 1.43-6.74 2.21-10.09.25-1.14.5-2.28.75-3.46 2.46-10.71 2.46-10.71 6.44-15.23 7.35-4.43 16.38-1.53 24.2.3"/><path fill="#59ca9c" d="M349 273c1.52 1.4 1.52 1.4 2.95 3.17.51.64 1.03 1.29 1.57 1.96.53.68 1.06 1.36 1.6 2.06.54.66 1.08 1.32 1.63 2 5.27 6.65 6.8 12.37 6.62 20.84-.81 6.53-4.34 10.38-9.37 14.35-8.27 5.97-18.15 5.91-28 4.62-4.18-1.43-7.48-3.35-11-6l-3-2.12c-2-1.88-2-1.88-3.5-4.26-.5-.53-.99-1.07-1.5-1.62-3.71.53-5.9 2.74-8.56 5.19-17.17 15.4-38.17 18.83-60.41 18.03-13.07-.96-22.56-7.31-31.34-16.66-3.36-3.93-5.77-7.77-7.69-12.56-.3-.69-.6-1.37-.9-2.08-2.46-6.28-2.41-12.24-2.1-18.92 15.71-2.92 29.73.31 45 4 2.53.6 5.05 1.2 7.58 1.78 1.47.34 2.93.69 4.4 1.05 5.98 1.4 12.11 2.14 18.02.17 2.35-.11 4.71-.19 7.06-.25 21.99-1.02 44.53-6.77 64.85-15.18 2.52-.69 3.64-.44 6.09.43"/><path fill="#fdfdfd" d="M623.063 199.5c9.9 6.36 15.86 15.9 18.55 27.28.7 4 .73 7.98.7 12.03-.01.89-.01 1.77-.02 2.68-.12 6.57-.77 12.39-3.29 18.51-.4.99-.81 1.99-1.22 3.01-4.65 10.3-11.25 17.71-21.78 21.99-7.11 2.25-16.13 2.21-23-.69-10.03-5.34-15.64-13.68-19-24.31-3.7-15.88-1.96-32.84 6.25-46.81 9.62-14.21 26.42-21.96 42.81-13.69"/><path fill="#58bba0" d="M354.5 69.75C357 70 357 70 359 72c.41 2.6.41 2.6.62 5.63.08 1 .15 2 .23 3.03L360 83c1.04-.31 2.08-.63 3.16-.95 7.47-2.24 14.97-4.42 22.53-6.36 1.26-.33 2.52-.65 3.82-.99 3.31-.66 6.13-.99 9.49-.7 2 2 2 2 2.44 4.44-.44 2.56-.44 2.56-2.5 4.09-3.37 1.68-6.72 2.64-10.36 3.51-.7.18-1.39.35-2.11.53-1.47.36-2.94.72-4.41 1.07-2.25.55-4.5 1.1-6.75 1.66-1.43.35-2.86.71-4.29 1.06-.67.16-1.35.33-2.04.5C364.24 92 364.24 92 362 92l2 10c5-1 5-1 8.56-2.06C376 99 376 99 380 99l-.12-2.87C380 93 380 93 382 91c4.56.56 4.56.56 6 2 .04 1.67.04 3.33 0 5 .28-.02.28-.02 1.69-.11 7.39-.26 12.51 1.12 18.56 5.42 5.3 5.18 8.8 10.59 9 18.06-.24 8.11-2.82 13.72-8.25 19.63-5.77 5.28-12.6 9.44-20.44 10.44-.84-.15-1.69-.29-2.56-.44-2-3-2-3-2-7 1.69-1.09 1.69-1.09 4-1.94 6.49-2.6 13.41-5.8 17.17-11.98 1.97-4.93 1.17-9.93-.29-14.89-2.26-3.84-3.84-5.32-7.88-7.19-3.03-.3-5.96-.24-9 0-.23 1.03-.46 2.05-.7 3.11-1.53 6.57-2.98 12.68-6.11 18.7-2.48 4.96-2.36 8.58-1.39 13.98.03.36.03.36.2 2.21l-2 2c-2.38-.37-2.38-.37-5-1-4 0-4 0-6.25 1.81-4.4 3.5-8.8 4.88-14.31 5.75-4.81-.78-7.31-2.92-10.44-6.56-3.5-5.76-3.8-11.44-3-18 1.93-7.75 7.26-13.65 13-19l4-2c-.5-2.31-.5-2.31-3-14-1.28.14-2.56.29-3.88.44-.81.09-1.62.17-2.46.26-1.81.2-3.61.42-5.41.66-.89.11-1.78.22-2.69.33-.82.1-1.64.21-2.49.32C334 97 334 97 332 95c-.31-2.5-.31-2.5 0-5 3.6-2.4 7.01-2.91 11.19-3.63.75-.13 1.5-.26 2.27-.4 1.84-.33 3.69-.65 5.54-.97l-.49-2.24c-.69-3.72-.7-6.98-.51-10.76 2-2 2-2 4.5-2.25"/><path fill="#59ca9c" d="M412 258c1.27.2 2.54.39 3.85.59 1.04.47 2.08.93 3.15 1.41.8 2.91.98 4.8.94 7.75 0 .41 0 .41.04 2.46.02 1.86.02 3.71.02 5.57 0 3.63.09 7.25.18 10.87.04 2.01.07 4.02.1 6.04.03 1.96.08 3.93.12 5.9.05 7.31-.36 12.24-4.4 18.41-4.91 4.79-9.59 6.29-16.38 6.31-7.65-.16-11.94-1.28-17.37-6.93-8.32-10.21-7.61-24.43-8.25-36.99-.08-1.52-.19-3.04-.31-4.56-.37-4.73-.62-9.16.31-13.83 2.73-2.52 5.39-2.73 9-3 1.21-.26 2.42-.53 3.67-.8 8.82-1.28 16.61-1.1 25.33.8"/><path fill="#5bbca2" d="M495.066 76.813c7.36 4.52 12.02 10.57 15.31 18.5 1.79 10.59 1.11 20-5.13 28.94-4.76 5.9-10.79 10.06-18.25 11.75-3.35.26-6.65.34-10-.0004999999999881766-1-1-1-1-1.25-3.44.09-.85.17-1.69.25-2.56 2.86-1.91 3.97-2.3 7.19-2.81 6.52-1.39 11.69-4.24 15.81-9.57 3.67-6.53 3.13-15.08 1.37-22.16-2.28-5.31-6.48-8.56-11.37-11.46-3-1.01-5.53-1.31-8.68-1.57-1-.08-1.99-.16-3.02-.25-.75-.06-1.51-.12-2.3-.18-.01 1.09-.02 2.18-.04 3.3-.22 8.38-1 16.23-3.27 24.32-.2.72-.4 1.44-.61 2.19-2.57 8.58-5.97 16.58-14.08 21.19-5.17 1.24-8.77.7-13.37-1.94-5.54-5.68-6.88-11.78-7.06-19.56.34-11.19 3.48-18.46 11.32-26.42 4.3-3.96 8.68-6.9 14.11-9.08.88-.36 1.76-.72 2.67-1.08 9.32-2.57 21.69-2.46 30.4 1.89"/><path fill="#f9ac8a" d="M138.379 234.582c2.62.42 2.62.42 4.65 2.43.31.44.31.44 1.91 2.68 6.58 8.7 12.66 12.49 23.44 14.18 4.36.82 4.36.82 6.56 3.44.06 2.69.06 2.69-2 5.25-.97.8-1.94 1.61-2.94 2.44-.89.76-1.77 1.52-2.69 2.31-2.31 1.69-2.31 1.69-4.31 1.69-1 1.74-1 1.74-2 4l-1 1.97c-2.49 5.21-3.69 10.01-4.41 15.74-.59 2.29-.59 2.29-3.59 4.29-1.96-.05-1.96-.05-4-1-1.79-2.3-1.79-2.3-3.62-5.19-5.57-7.92-11.5-11.32-20.88-13.37-1-.17-2-.34-3.03-.51-2.47-.93-2.47-.93-3.93-3.37-.18-.85-.36-1.69-.54-2.56 2.01-2.53 4.22-4.4 6.76-6.37 7.97-6.38 9.61-12.87 10.75-22.87.62-3.49 1.33-4.56 4.87-5.18"/><path fill="#fbfdfc" d="M294 250c2.91 2.91 2.3 5.14 2.31 9.19-.08 9.51-2.81 15.79-9.31 22.81-7.01 5.95-16.74 8.71-25.87 8.35-5.02-.83-8.76-3.22-12.63-6.41-2.36-4.63-2.42-8.86-1.5-13.94 3.81-8.4 12.16-13.07 20.44-16.25 8.61-2.87 17.43-4.83 26.56-3.75"/><path fill="#5aca9c" d="M512 284c.9 22.63.9 22.63-6.25 32.44-5.2 4.84-9.59 6.79-16.75 7.06-6.47-.25-11.02-1.69-15.75-6.15-4.26-4.69-6.52-8.97-6.45-15.43.01-.93.02-1.86.02-2.82l.06-2.91c0-.98.01-1.96.02-2.97.03-2.41.06-4.81.1-7.22.52.07.52.07 3.15.44 15.21 2.05 27.52-2.44 41.85-2.44"/><path fill="#fb9e84" d="M736.707 263.023c2.29.98 2.29.98 3.42 3.41.29 1.18.58 2.36.87 3.57 1.64 6.53 3.06 11.28 8 16 1.24.69 2.49 1.36 3.75 2 3.25 2 3.25 2 4.32 5.12-.07 2.88-.07 2.88-2.07 4.88-1.9.51-3.82.96-5.75 1.37-9.3 2.24-13.91 6.73-19.25 14.56-.33.34-.33.34-2 2.07-2.62 0-2.62 0-5-1-1.99-2.99-2.35-4.33-2.87-7.75-1.17-5.99-2.58-10.38-7.58-14.06q-2.655-1.77-5.4-3.42c-2.15-1.77-2.15-1.77-3.2-4.3.05-2.47.05-2.47 1.65-4.23 2.68-1.39 4.8-1.81 7.78-2.18 9.3-1.58 13-6.49 18.38-13.9 2.24-2.16 2.24-2.16 4.95-2.14"/><path fill="#58bba1" d="M789 169c3.77 3.77 4.3 8.61 4.35 13.78-.13 7.73-1.67 15-3.44 22.5-.53 2.28-1.04 4.57-1.54 6.86-3.13 13.85-8 27.61-20.37 35.86-3.53-.3-5.31-1.93-7.81-4.31-3.53-3.22-6.97-5.49-11.19-7.69 2.86-1.9 5.65-3.29 8.75-4.75 11.11-5.61 17.83-13.44 21.96-25.28 2.23-7.43 3.56-15.07 4.86-22.71.54-2.86 1.41-5.53 2.43-8.26.37-1.11.74-2.23 1.12-3.38.29-.86.58-1.73.88-2.62"/><path fill="#5bbca2" d="M551.875 63.563c.35 0 .35 0 2.15.03 5.55.17 9.64.9 13.97 4.41.6.46 1.2.92 1.81 1.4 3.76 3.54 4.63 6.52 4.82 11.66-.29 5.1-1.01 8.15-4.63 11.94-4.87 4.2-10.02 7.54-16.1 9.77-1.9 1.23-1.9 1.23-2.62 3.5-.05.44-.05.44-.34 2.67-.6 4.62-.6 4.62-2.33 6.89-1.61 1.17-1.61 1.17-4.23.92-2.38-.75-2.38-.75-3.38-1.75-.58-6.56.6-11.34 4-17 3.72-3.94 8.79-6.1 13.58-8.54 2.42-1.46 2.42-1.46 4.42-4.46.34-1.94.34-1.94.38-4 .01-.34.01-.34.09-2.06-.47-1.94-.47-1.94-2.13-3.67-4.89-2.67-11.31-2.16-16.57-.62-4.88 2.42-6.06 5.5-7.77 10.35-.65.66-1.32 1.32-2 2-3.29-.33-4.62-.63-7-3-.08-4.27 1.16-7.88 3.72-11.27 6-6.21 11.35-9.3 20.16-9.17"/><path fill="#5cc1a1" d="M354.5 69.75C357 70 357 70 359 72c.41 2.6.41 2.6.62 5.63.08 1 .15 2 .23 3.03L360 83c1.04-.31 2.08-.63 3.16-.95 7.47-2.24 14.97-4.42 22.53-6.36 1.26-.33 2.52-.65 3.82-.99 3.31-.66 6.13-.99 9.49-.7 2 2 2 2 2.44 4.44-.44 2.56-.44 2.56-2.5 4.09-3.37 1.68-6.72 2.64-10.36 3.51-.7.18-1.39.35-2.11.53-1.47.36-2.94.72-4.41 1.07-2.25.55-4.5 1.1-6.75 1.66-1.43.35-2.86.71-4.29 1.06-.67.16-1.35.33-2.04.5C364.24 92 364.24 92 362 92c.21 1.26.41 2.52.62 3.81.59 3.59.55 3.94-1.62 7.19-2.62-.31-2.62-.31-5-1v-3h3c-2-3-2-3-3.85-3.58-5.07-.53-9.2-.17-14.14 1.09-2.42.59-4.54.79-7.01.49-2-2-2-2-2.31-4.5.1-.83.2-1.65.31-2.5 3.6-2.4 7.01-2.91 11.19-3.63.75-.13 1.5-.26 2.27-.4 1.84-.33 3.69-.65 5.54-.97l-.49-2.24c-.69-3.72-.7-6.98-.51-10.76 2-2 2-2 4.5-2.25"/><path fill="#57baa0" d="M174 309c3.65 2.85 4.82 6.95 6.52 11.11 4.18 8.17 9.63 10.87 17.68 14.54 2.07 1.01 3.96 1.97 5.8 3.35.7 2.59.7 2.59 0 5-1.09 1.79-1.09 1.79-3 3-9.62 1.39-18.29.01-26.25-5.58-5.19-4.23-9.89-9.5-10.75-16.42-.42-5.63.45-9.09 3-14 2.55-1.27 4.17-1.28 7-1"/><path fill="#fafcfb" d="M466 84c.98 12.13-.92 29.3-9 39-3 2-3 2-6 2-3-1-3-1-4.66-3.63-2.46-6.19-2.46-13.4-.65-19.81.95-2.03 2-3.75 3.31-5.56q.63-.915 1.29-1.86C453.84 89.51 459.83 84 466 84"/><path fill="#5bbda2" d="M410 110h4c3.81 6.4 3.63 12.38 2.38 19.56-3.79 9.47-10.96 15.47-20 19.82-3.58 1.47-6.48 2.29-10.38 1.62-2-3-2-3-2-7 1.69-1.09 1.69-1.09 4-1.94 6.51-2.6 13.38-5.81 17.18-11.97 2-5.09.93-10.88-.18-16.09l1-2h4Z"/><path fill="#b88ffc" d="M738 129c2.27-.28 2.27-.28 5 0 1.85 1.84 1.85 1.84 3.62 4.5.68.99 1.35 1.98 2.04 3 .37.56.74 1.11 1.11 1.68 1.36 2.02 2.77 4 4.19 5.97 1.01 1.43 2.03 2.86 3.04 4.29.49.68.99 1.37 1.49 2.08.46.65.92 1.3 1.39 1.98.4.58.81 1.15 1.24 1.75.88 1.75.88 1.75.88 5.75l-2.31-.06C757 160 757 160 754 161l-2-1v3l-6-1 3-4c-.61-.17-1.23-.34-1.86-.52-.81-.24-1.62-.48-2.45-.73l-2.43-.7c-2.83-1.31-3.84-2.26-5.26-5.05-.04-3.31-.04-3.31.38-7 .81-7.55.81-7.55-.38-11h2l1-2Z"/><path fill="#5abba1" d="M605 87c4.13 4.13 4.27 10.05 4.32 15.62 0 .77 0 1.53-.01 2.32.02.76.03 1.52.05 2.3 0 2.28-.13 4.49-.36 6.76-.08.74-.15 1.49-.23 2.26-.55 2.5-1.04 3.83-2.77 5.74-4.28 1.65-8.59 2.13-13.12 2.62-1.22.18-2.44.35-3.7.52-6.44.85-6.44.85-9.18.86l-1-2c.56-.34 1.11-.68 1.69-1.03 12.29-7.81 20.49-17.93 23.75-32.35.18-1.19.37-2.39.56-3.62"/><path fill="#ba92fb" d="M314.563 331.188c2.44.81 2.44.81 4.44 2.81.96 7.55-.21 15.51-.88 23.07-.08.92-.15 1.85-.23 2.81-.09.88-.17 1.75-.26 2.66-.07.79-.15 1.57-.22 2.38-.41 2.08-.41 2.08-2.41 5.08-3 .31-3 .31-6-.0004999999999881766-2-2-2-2-2.27-5.06.03-7.62.32-15.16 1.08-22.75.07-.77.14-1.54.21-2.33.34-3.02.63-5.36 2.39-7.88 1.59-.98 1.59-.98 4.15-.79"/><path fill="#b78dfc" d="M693 162c7.91.01 15.75 2.1 23.41 3.9 2.05.48 4.1.94 6.15 1.4 1.31.3 2.62.61 3.94.91 1.17.27 2.35.54 3.56.82 2.87.95 4.2 1.55 5.94 3.97-.06 2.06-.06 2.06-1 4-1.53 1.21-1.53 1.21-4 2a82 82 0 0 1-8.38-1.45c-.81-.17-1.62-.35-2.45-.52-1.71-.37-3.41-.75-5.12-1.13-2.6-.59-5.22-1.14-7.83-1.69-1.66-.37-3.32-.73-4.97-1.1-.79-.16-1.57-.33-2.37-.5-3.82-.87-6.42-1.49-8.88-4.61.42-4.42.42-4.42 2-6"/><path fill="#f7fbfa" d="M357 117h2c1.54 2.77 2.56 5.79 3.69 8.75.33.83.66 1.65 1.01 2.5.15.4.15.4.94 2.42.28.74.57 1.47.86 2.22.59 2.49.46 3.75-.5 6.11-6.32 5.79-6.32 5.79-10.94 6.38-3.06-.38-3.06-.38-4.94-2.32-1.77-4.82-2.06-9.29-.39-14.21 2.12-4.5 4.85-8.25 8.27-11.85"/><path fill="#b78dfc" d="M696 143c6.45.29 23.25 2.25 28 7 .19 2.44.19 2.44 0 5l-2 2c-6.09-.21-11.95-1.55-17.88-2.88-.74-.16-1.49-.32-2.27-.48-6.86-1.61-6.86-1.61-8.85-4.64.27-2.97.85-3.85 3-6"/><path fill="#ba92fc" d="M340 339c1.91 2.11 1.91 2.11 3.62 4.75l1.73 2.61c.55.87 1.09 1.74 1.65 2.64l1.69 2.66c1.52 2.71 1.72 4.28 1.31 7.34-2 2-2 2-5.31 2.04-4.71-1.33-6.3-3.66-8.69-7.66-.41-.61-.81-1.21-1.23-1.84-2.19-3.5-2.78-5.18-2.65-9.44.29-1.02.58-2.05.88-3.1 2.78-1.39 4.07-.97 7 0"/><path fill="#b991fc" d="M288.5 340.75c2.5.25 2.5.25 4.5 2.25-.26 5.4-1.87 9.21-4.5 13.87-.31.57-.31.57-1.91 3.43C285 363 285 363 284 364c-2.94.19-2.94.19-6 0-2-2-2-2-2.06-4.87.99-5.86 6.11-17.74 12.56-18.38"/><path fill="#f6faf9" d="M378 108c.58 6.58-1.29 12.03-4 18l-2 2c-2.49-2.49-3.03-4.6-4.12-7.94-.36-1.06-.71-2.12-1.08-3.21-.8-2.85-.8-2.85-.8-5.85 4.15-2.2 7.24-3.43 12-3"/><path fill="#5cbda2" d="M547 123c2.44 2.12 2.44 2.12 4 5-.06 3.19-.06 3.19-1 6-3.69 2.46-5.63 2.39-10 2-2-1.06-2-1.06-3-3 .12-3.43.38-5.98 2.19-8.94 2.8-1.64 4.63-1.58 7.81-1.06"/><path fill="#55b99f" d="M352 83l1 2c2.72.63 2.72.63 6.06 1.12 1.11.17 2.21.34 3.35.51.85.12 1.71.25 2.59.37v-2l3-1 1 6c-2.91 1.26-4.8 2-8 2v2c-4.08.28-6.53-.47-10.12-2.38-.85-.44-1.7-.88-2.58-1.33C346 89 346 89 343 87c5.62-2 5.62-2 9-2Z"/></svg>